<svg width="646" height="528" viewBox="0 0 646 528" fill="none" xmlns="http://www.w3.org/2000/svg">
<path d="M542.933 52.28C495.892 5.23865 408.533 10.468 320.427 64.9727C313.708 69.4519 311.468 78.41 315.197 85.8793C319.677 92.5981 328.635 94.8377 336.104 91.1085C410.771 44.8165 486.184 38.0925 522.024 73.9365C572.051 123.963 537.707 241.19 448.103 330.79C358.504 420.389 240.529 453.987 191.249 404.711C177.061 390.523 169.599 371.113 168.104 347.217C167.359 339.003 160.635 333.029 152.421 333.029C144.208 333.773 137.489 340.497 138.233 348.711C139.728 380.071 150.926 406.951 170.337 425.618L239.775 495.055C261.425 516.706 291.296 527.159 325.639 527.159C390.597 527.159 470.492 489.826 539.185 421.133C643.716 316.602 675.825 185.186 613.107 121.719L542.933 52.28ZM591.469 143.373C604.907 156.811 611.631 174.733 613.871 194.895L574.297 155.321C575.042 145.613 575.042 135.909 574.297 126.201L591.469 143.373ZM572.803 331.533L525.016 283.747C531.735 273.294 538.453 262.096 543.683 251.643L590.724 298.684C585.495 309.882 579.521 321.08 572.803 331.533ZM528 389.773L479.469 341.243C489.178 330.79 498.881 319.592 507.095 308.388L555.625 356.919C547.412 368.122 537.708 379.32 528 389.773ZM474.984 437.565L426.453 389.035C436.906 380.821 448.104 371.863 458.557 362.155L507.088 410.685C496.64 420.388 485.437 429.352 474.984 437.565ZM416.744 473.404L369.703 426.363C380.156 420.389 391.353 414.415 401.807 407.696L449.593 455.483C438.401 462.201 427.948 468.175 416.744 473.404ZM354.025 494.311L309.973 450.259C320.426 447.274 330.88 443.54 341.333 439.806L387.625 486.098C375.683 489.832 364.48 492.816 354.027 494.311L354.025 494.311ZM557.119 222.524C561.598 212.071 564.587 201.617 567.572 191.164L611.624 235.216C609.384 245.669 607.145 256.867 602.665 268.071L557.119 222.524ZM255.465 457.724C261.439 457.724 267.413 456.979 274.132 456.979L314.449 497.297C292.799 495.802 274.876 488.338 261.433 474.895L244.261 457.723L255.465 457.724Z" fill="black"/>
<path d="M103.147 294.2C103.147 302.414 109.865 309.132 118.079 309.132H190.505C198.719 309.132 205.437 302.413 205.437 294.2V206.096H293.541C301.755 206.096 308.473 199.377 308.473 191.164V118.737C308.473 110.524 301.755 103.805 293.541 103.805H205.437V15.696C205.437 7.48238 198.719 0.763977 190.505 0.763977H118.079C109.865 0.763977 103.147 7.48278 103.147 15.696V103.8L15.7867 103.805C7.57307 103.805 0.854675 110.524 0.854675 118.737V191.164C0.854675 199.377 7.57347 206.096 15.7867 206.096H103.891L103.896 294.2L103.147 294.2ZM30.72 176.231V133.668H118.824C127.038 133.668 133.756 126.949 133.756 118.736L133.761 30.6266H176.324V118.731C176.324 126.944 183.043 133.663 191.256 133.663H279.36V176.225L190.505 176.231C182.292 176.231 175.573 182.949 175.573 191.163V279.267H133.011L133.016 191.163C133.016 182.949 126.297 176.231 118.084 176.231L30.72 176.231Z" fill="black"/>
</svg>
