<svg width="599" height="558" viewBox="0 0 599 558" fill="none" xmlns="http://www.w3.org/2000/svg">
<path d="M85.3733 477.2C135.4 525.736 203.347 554.856 278.013 554.856C309.373 554.856 339.987 549.627 369.107 539.924C376.575 536.94 381.055 528.726 378.065 521.257C375.081 513.789 366.867 509.309 359.398 512.299C333.262 521.257 306.382 525.736 278.013 525.736C214.544 525.736 157.054 501.84 113 463.018C129.426 435.392 154.068 411.496 182.437 392.83C199.609 401.788 240.677 420.455 272.786 420.455C285.479 420.455 300.412 417.471 316.838 412.241C324.307 410.002 328.786 401.043 326.547 393.575C324.307 386.106 315.349 381.627 307.88 383.866C293.692 388.346 282.495 390.585 272.787 390.585C245.907 390.585 203.349 370.424 189.161 362.211C184.682 359.971 178.708 359.971 174.229 362.211C140.631 382.372 112.256 409.252 92.0933 440.612C54.0147 397.305 30.864 340.56 30.864 277.839C30.864 141.199 142.119 30.6919 278.011 30.6919C413.904 30.6919 525.157 141.947 525.157 277.839C525.157 286.052 531.876 292.771 540.089 292.771C548.303 292.771 555.021 286.052 555.021 277.839C555.021 124.772 430.328 0.825195 278.008 0.825195C125.701 0.830403 0.261322 124.773 0.261322 277.839C0.261322 354.745 31.6213 424.185 82.3973 474.212C83.1421 475.707 83.8869 476.451 85.3817 477.196L85.3733 477.2Z" fill="black"/>
<path d="M277.267 113.573C207.829 113.573 168.251 156.88 168.251 233.043C168.251 303.975 222.011 373.416 277.267 373.416C334.012 373.416 386.283 306.219 386.283 233.043C386.283 156.881 346.709 113.573 277.267 113.573ZM277.267 343.547C235.455 343.547 198.121 281.573 198.121 233.041C198.121 191.973 211.559 143.443 277.267 143.443C342.975 143.443 356.412 191.973 356.412 233.041C356.412 288.292 317.589 343.547 277.267 343.547Z" fill="black"/>
<path d="M515.453 318.907C515.453 310.693 508.735 303.975 500.521 303.975H442.281C434.068 303.975 427.349 310.693 427.349 318.907V386.855H359.401C351.188 386.855 344.469 393.573 344.469 401.787V460.027C344.469 468.24 351.188 474.959 359.401 474.959H427.349V542.907C427.349 551.12 434.068 557.839 442.281 557.839H500.521C508.735 557.839 515.453 551.12 515.453 542.907V474.959H583.401C591.615 474.959 598.333 468.24 598.333 460.027V401.787C598.333 393.573 591.615 386.855 583.401 386.855H515.453V318.907ZM568.469 416.719V445.093H500.521C492.308 445.093 485.589 451.812 485.589 460.025V527.973H457.215V460.025C457.215 451.812 450.496 445.093 442.283 445.093H374.335V416.719H442.283C450.496 416.719 457.215 410 457.215 401.787V333.839H485.589V401.787C485.589 410 492.308 416.719 500.521 416.719H568.469Z" fill="black"/>
</svg>
